<mxfile host="65bd71144e">
    <diagram id="OlM7eXHCo57ORDTGHuPv" name="Page-1">
        <mxGraphModel dx="804" dy="440" grid="1" gridSize="10" guides="1" tooltips="1" connect="1" arrows="1" fold="1" page="1" pageScale="1" pageWidth="827" pageHeight="1169" math="0" shadow="0">
            <root>
                <mxCell id="0"/>
                <mxCell id="1" parent="0"/>
                <mxCell id="3" value="" style="rounded=0;whiteSpace=wrap;html=1;" parent="1" vertex="1">
                    <mxGeometry x="20" y="10" width="650" height="410" as="geometry"/>
                </mxCell>
                <mxCell id="8" value="" style="shape=flexArrow;endArrow=classic;html=1;" parent="1" edge="1">
                    <mxGeometry width="50" height="50" relative="1" as="geometry">
                        <mxPoint x="344.5" y="90" as="sourcePoint"/>
                        <mxPoint x="344.5" y="30" as="targetPoint"/>
                    </mxGeometry>
                </mxCell>
                <mxCell id="11" value="&lt;font style=&quot;font-size: 24px&quot;&gt;Top&lt;/font&gt;" style="edgeLabel;html=1;align=center;verticalAlign=middle;resizable=0;points=[];" parent="8" vertex="1" connectable="0">
                    <mxGeometry x="-0.4444" y="1" relative="1" as="geometry">
                        <mxPoint x="2" y="27" as="offset"/>
                    </mxGeometry>
                </mxCell>
                <mxCell id="12" value="" style="shape=flexArrow;endArrow=classic;html=1;" parent="1" target="3" edge="1">
                    <mxGeometry width="50" height="50" relative="1" as="geometry">
                        <mxPoint x="344.5" y="330" as="sourcePoint"/>
                        <mxPoint x="344.5" y="270" as="targetPoint"/>
                    </mxGeometry>
                </mxCell>
                <mxCell id="13" value="&lt;font style=&quot;font-size: 24px&quot;&gt;Bottom&lt;/font&gt;" style="edgeLabel;html=1;align=center;verticalAlign=middle;resizable=0;points=[];" parent="12" vertex="1" connectable="0">
                    <mxGeometry x="-0.4444" y="1" relative="1" as="geometry">
                        <mxPoint y="-15" as="offset"/>
                    </mxGeometry>
                </mxCell>
                <mxCell id="16" value="" style="shape=flexArrow;endArrow=classic;html=1;" parent="1" edge="1">
                    <mxGeometry width="50" height="50" relative="1" as="geometry">
                        <mxPoint x="120" y="214.5" as="sourcePoint"/>
                        <mxPoint x="40" y="214.5" as="targetPoint"/>
                    </mxGeometry>
                </mxCell>
                <mxCell id="17" value="&lt;font style=&quot;font-size: 24px&quot;&gt;Left&lt;/font&gt;" style="edgeLabel;html=1;align=center;verticalAlign=middle;resizable=0;points=[];" parent="16" vertex="1" connectable="0">
                    <mxGeometry x="-0.4444" y="1" relative="1" as="geometry">
                        <mxPoint x="2" y="27" as="offset"/>
                    </mxGeometry>
                </mxCell>
                <mxCell id="18" value="" style="shape=flexArrow;endArrow=classic;html=1;" parent="1" edge="1">
                    <mxGeometry width="50" height="50" relative="1" as="geometry">
                        <mxPoint x="580" y="214.5" as="sourcePoint"/>
                        <mxPoint x="660" y="215" as="targetPoint"/>
                    </mxGeometry>
                </mxCell>
                <mxCell id="19" value="&lt;span style=&quot;font-size: 24px&quot;&gt;Right&lt;/span&gt;" style="edgeLabel;html=1;align=center;verticalAlign=middle;resizable=0;points=[];" parent="18" vertex="1" connectable="0">
                    <mxGeometry x="-0.4444" y="1" relative="1" as="geometry">
                        <mxPoint x="2" y="27" as="offset"/>
                    </mxGeometry>
                </mxCell>
                <mxCell id="20" value="" style="endArrow=none;html=1;entryX=0.307;entryY=0;entryDx=0;entryDy=0;entryPerimeter=0;exitX=0.305;exitY=1;exitDx=0;exitDy=0;exitPerimeter=0;" parent="1" source="3" target="3" edge="1">
                    <mxGeometry width="50" height="50" relative="1" as="geometry">
                        <mxPoint x="220" y="220" as="sourcePoint"/>
                        <mxPoint x="220" y="170" as="targetPoint"/>
                    </mxGeometry>
                </mxCell>
                <mxCell id="21" value="&lt;font style=&quot;font-size: 24px&quot;&gt;0&lt;/font&gt;" style="text;html=1;strokeColor=none;fillColor=none;align=center;verticalAlign=middle;whiteSpace=wrap;rounded=0;" parent="1" vertex="1">
                    <mxGeometry x="220" y="20" width="40" height="20" as="geometry"/>
                </mxCell>
                <mxCell id="25" value="" style="endArrow=none;html=1;entryX=0.996;entryY=0.689;entryDx=0;entryDy=0;entryPerimeter=0;exitX=-0.001;exitY=0.685;exitDx=0;exitDy=0;exitPerimeter=0;" parent="1" source="3" target="3" edge="1">
                    <mxGeometry width="50" height="50" relative="1" as="geometry">
                        <mxPoint x="370" y="230" as="sourcePoint"/>
                        <mxPoint x="420" y="180" as="targetPoint"/>
                    </mxGeometry>
                </mxCell>
                <mxCell id="27" value="&lt;font style=&quot;font-size: 24px&quot;&gt;y&lt;/font&gt;" style="text;html=1;strokeColor=none;fillColor=none;align=center;verticalAlign=middle;whiteSpace=wrap;rounded=0;" parent="1" vertex="1">
                    <mxGeometry x="170" y="20" width="40" height="20" as="geometry"/>
                </mxCell>
                <mxCell id="28" value="&lt;font style=&quot;font-size: 24px&quot;&gt;x&lt;/font&gt;" style="text;html=1;strokeColor=none;fillColor=none;align=center;verticalAlign=middle;whiteSpace=wrap;rounded=0;" parent="1" vertex="1">
                    <mxGeometry x="620" y="300" width="40" height="20" as="geometry"/>
                </mxCell>
                <mxCell id="29" value="&lt;font style=&quot;font-size: 24px&quot;&gt;0&lt;/font&gt;" style="text;html=1;strokeColor=none;fillColor=none;align=center;verticalAlign=middle;whiteSpace=wrap;rounded=0;" vertex="1" parent="1">
                    <mxGeometry x="170" y="300" width="40" height="20" as="geometry"/>
                </mxCell>
            </root>
        </mxGraphModel>
    </diagram>
</mxfile>